<?xml version="1.0" standalone="no"?>
<!DOCTYPE svg PUBLIC "-//W3C//DTD SVG 20010904//EN"
 "http://www.w3.org/TR/2001/REC-SVG-20010904/DTD/svg10.dtd">
<svg version="1.0" xmlns="http://www.w3.org/2000/svg"
 width="260.000000pt" height="260.000000pt" viewBox="0 0 260.000000 260.000000"
 preserveAspectRatio="xMidYMid meet">
<metadata>
Created by potrace 1.11, written by Peter Selinger 2001-2013
</metadata>
<g transform="translate(0.000000,260.000000) scale(0.100000,-0.100000)"
fill="#000000" stroke="none">
<path d="M795 1848 c-80 -16 -241 -62 -282 -80 -91 -40 -145 -142 -149 -283
-4 -143 33 -236 184 -459 137 -202 156 -253 110 -297 -21 -19 -31 -20 -108
-16 -122 6 -179 39 -252 145 -31 45 -56 53 -82 26 -23 -23 -20 -46 13 -91 41
-56 84 -87 161 -114 56 -21 83 -24 200 -23 210 1 343 43 452 143 80 73 122
160 122 250 -1 111 -47 207 -193 399 -90 119 -156 253 -148 303 7 42 27 51
105 45 92 -7 145 -30 205 -89 46 -46 61 -50 95 -24 32 25 -4 79 -76 116 -108
55 -242 73 -357 49z"/>
<path d="M1435 1828 c-4 -11 -56 -251 -69 -318 -2 -14 -14 -69 -26 -124 -12
-54 -23 -106 -25 -115 -2 -9 -19 -92 -40 -186 -20 -93 -39 -181 -41 -195 -3
-14 -14 -65 -25 -115 -10 -49 -19 -90 -19 -92 0 -2 175 -3 388 -3 428 0 465 4
554 61 58 37 119 103 149 161 18 33 23 60 24 119 0 66 -3 80 -28 118 l-29 43
24 16 c55 38 109 103 140 167 30 64 33 78 32 160 0 58 -6 103 -16 126 -38 87
-123 145 -253 172 -96 20 -733 24 -740 5z m718 -60 c138 -25 214 -105 225
-235 6 -80 -11 -146 -53 -203 -49 -67 -101 -99 -179 -113 -59 -10 -70 -9 -118
11 -67 28 -72 27 -86 -2 -20 -45 32 -72 148 -75 87 -2 117 -18 136 -72 49
-135 -62 -288 -236 -325 -57 -13 -265 -11 -263 2 9 51 98 479 123 594 18 80
34 156 36 170 2 14 11 54 19 90 7 36 19 89 26 118 l11 53 80 -2 c44 -1 103 -6
131 -11z"/>
</g>
</svg>
